<svg width="97" height="84" viewBox="0 0 97 84" fill="none" xmlns="http://www.w3.org/2000/svg">
<g clip-path="url(#clip0_1_280)">
<path d="M3.86506 57.1147C10.4543 69.9383 22.8391 79.5913 36.8186 82.7953C45.5931 84.8062 54.8955 84.2598 63.4302 81.4238C70.7134 79.004 81.592 75.0045 86.8265 69.2358C94.8849 60.3596 99.7392 39.5632 95.339 28.1632C93.1647 22.5282 88.3068 18.4619 83.6187 14.6891C80.0859 11.8494 76.5052 9.00588 72.6661 6.61958C70.7466 5.42643 68.7643 4.34479 66.6934 3.43413C56.1912 -1.17865 43.8914 -0.992795 33.1788 3.09216C22.4662 7.18083 13.3373 14.9865 6.81083 24.4648C3.08985 29.8693 0.103485 36.0803 0.0038145 42.6557C-0.0700156 47.6959 1.56529 52.6358 3.86875 57.1147L3.86506 57.1147ZM76.4905 39.7156C80.097 41.6447 82.5777 46.3912 83.962 50.1194C85.3462 53.8438 84.5969 55.7246 84.3163 56.6278C84.0358 57.5347 82.2602 59.0661 81.592 59.6237C80.9239 60.1775 77.908 62.627 76.664 63.2217C75.42 63.8164 74.9733 63.7309 73.5484 63.9986C71.6436 64.3554 66.7192 64.4483 66.7451 64.3554C65.047 64.0618 63.504 62.352 61.4331 58.319C58.4504 52.5094 59.2367 51.4426 59.3327 48.443C59.4286 45.4434 62.6771 36.1547 64.8218 36.0023C66.9666 35.8499 72.8766 37.7902 76.4831 39.7193L76.4905 39.7156ZM34.995 18.8001C47.461 11.2769 63.8657 19.7256 64.5044 20.0007C64.9806 20.2051 65.047 20.4505 65.047 20.4505C64.7406 25.9553 53.9505 33.8836 45.9844 36.3666C38.022 38.8532 34.5372 36.7234 34.5372 36.7234C34.5372 36.7234 29.7753 34.8686 28.5165 29.9473C27.2577 25.026 29.635 21.9261 34.9913 18.8001L34.995 18.8001ZM13.5145 46.0047L13.5145 46.0121C14.1937 44.0979 16.08 42.8081 18.2063 41.8714C20.9675 40.6559 24.2197 40.8752 27.0658 41.9086C29.9156 42.9419 32.4257 44.7223 34.7883 46.6105C36.9293 48.3204 39.0851 50.1826 41.7319 50.8999C42.6547 51.149 43.6108 51.2531 44.5263 51.517C48.6828 52.7101 51.2189 56.9549 52.3005 61.1105C52.5035 61.891 52.6733 62.7088 52.4998 63.4931C52.3115 64.3517 51.7357 65.0728 51.1044 65.6935C47.4093 69.325 41.2114 70.1353 36.6635 67.578C32.3408 65.1434 29.3766 60.0623 24.4596 59.4193C23.4666 59.2892 22.4552 59.3598 21.4695 59.1739C18.4241 58.6052 16.4233 55.8547 14.8213 53.1524C14.8213 53.1524 12.1634 49.5804 13.5071 46.001L13.5145 46.0047Z" fill="white"/>
</g>
<defs>
<clipPath id="clip0_1_280">
<rect width="97" height="84" fill="white" transform="translate(97 84) rotate(-180)"/>
</clipPath>
</defs>
</svg>
